<svg width="80" height="80" viewBox="0 0 80 80" fill="none" xmlns="http://www.w3.org/2000/svg">
<path d="M20 40C31.0457 40 40 31.0457 40 20C40 8.95431 31.0457 0 20 0C8.95431 0 0 8.95431 0 20C0 31.0457 8.95431 40 20 40Z" transform="scale(2)" fill="#DC4E41"/>
<path d="M0.0050641 8.25774C-0.0658832 11.6989 2.30425 14.9828 5.56462 16.0537C8.63568 17.0855 12.4116 16.3136 14.4551 13.6836C15.9472 11.8408 16.2862 9.38399 16.1247 7.08872C13.4947 7.06519 10.8646 7.07303 8.23851 7.07695C8.23423 8.01389 8.23851 8.94725 8.24244 9.88418C9.81718 9.92768 11.3923 9.90771 12.967 9.93944C12.5695 11.3017 11.6639 12.5695 10.2896 13.0615C7.636 14.2309 4.25014 12.7032 3.41517 9.91948C2.40729 7.25379 4.05726 4.03692 6.78142 3.26149C8.47061 2.66717 10.2108 3.33636 11.6561 4.21446C12.3884 3.52923 13.0736 2.79694 13.7467 2.05681C12.1046 0.682786 9.99437 -0.159669 7.82495 0.0253648C3.56847 0.0759905 -0.156439 4.00554 0.0050641 8.25774Z" transform="translate(13.9163 25.2754) scale(2)" fill="#DC4E41"/>
<path d="M2.37442 -2.61122e-07C2.36657 0.783628 2.35837 1.57118 2.35445 2.35445C1.5669 2.36229 0.783629 2.36622 4.78724e-07 2.37014C4.78724e-07 3.15377 4.78724e-07 3.93312 4.78724e-07 4.71675C0.783629 4.72067 1.57118 4.72459 2.35445 4.73279C2.36229 5.51642 2.36229 6.29969 2.37014 7.08724C3.14984 7.08724 3.93347 7.08332 4.71674 7.08724C4.72102 6.29969 4.72459 5.51642 4.73279 4.72887C5.51606 4.72495 6.30361 4.72102 7.08724 4.7171C7.08724 3.93347 7.08724 3.15412 7.08724 2.37049C6.30397 2.36657 5.51642 2.36265 4.73279 2.35481C4.72851 1.57118 4.72102 0.783628 4.71674 0.000356062C3.93347 -4.56962e-07 3.15377 -2.61122e-07 2.37442 -2.61122e-07Z" transform="translate(51.6539 34.7012) scale(2)" fill="#DC4E41"/>
<path d="M0.00506456 8.2581C-0.156439 4.0059 3.56812 0.0763472 7.8246 0.025365C9.99401 -0.159668 12.1046 0.682787 13.7464 2.05681C13.0729 2.7973 12.3877 3.52923 11.6557 4.21446C10.2104 3.33636 8.47025 2.66717 6.78106 3.26149C4.05655 4.03727 2.40658 7.25414 3.41481 9.91948C4.24978 12.7032 7.63564 14.2309 10.2892 13.0615C11.6632 12.5695 12.5691 11.3017 12.9667 9.93944C11.3919 9.90807 9.81682 9.92768 8.24208 9.88418C8.23816 8.94725 8.23424 8.01388 8.23816 7.07695C10.8643 7.07303 13.4943 7.06519 16.1244 7.08872C16.2859 9.38434 15.9472 11.8411 14.4548 13.6836C12.4112 16.3136 8.63568 17.0855 5.56427 16.0537C2.30461 14.9831 -0.0658827 11.6992 0.00506456 8.2581Z" transform="translate(13.9163 25.2734) scale(2)" fill="white"/>
<path d="M2.37442 -2.61122e-07C3.15412 -2.61122e-07 3.93347 -2.61122e-07 4.71674 -2.61122e-07C4.72102 0.783628 4.72851 1.57118 4.73279 2.35445C5.51606 2.36229 6.30361 2.36622 7.08724 2.37014C7.08724 3.15377 7.08724 3.93312 7.08724 4.71675C6.30397 4.72067 5.51642 4.72459 4.73279 4.72851C4.72495 5.51606 4.72102 6.29933 4.71674 7.08688C3.93347 7.08296 3.14949 7.08688 2.37014 7.08688C2.36265 6.29933 2.36265 5.51606 2.35445 4.73243C1.57118 4.72423 0.783629 4.72067 4.78724e-07 4.71639C4.78724e-07 3.93276 4.78724e-07 3.15341 4.78724e-07 2.36978C0.783629 2.36586 1.56726 2.36194 2.35445 2.35409C2.35837 1.57118 2.36622 0.783628 2.37442 -2.61122e-07Z" transform="translate(51.6539 34.7012) scale(2)" fill="white"/>
</svg>
