<svg width="80" height="80" viewBox="0 0 80 80" fill="none" xmlns="http://www.w3.org/2000/svg">
<path d="M20 40C31.0457 40 40 31.0457 40 20C40 8.95431 31.0457 0 20 0C8.95431 0 0 8.95431 0 20C0 31.0457 8.95431 40 20 40Z" transform="scale(2)" fill="#007AB9"/>
<path d="M22.2995 13.0636V21.3091H17.519V13.6162C17.519 11.6846 16.8288 10.3654 15.0979 10.3654C13.777 10.3654 12.9923 11.2535 12.6457 12.1134C12.5199 12.4208 12.4874 12.8475 12.4874 13.2785V21.3088H7.70651C7.70651 21.3088 7.77069 8.27944 7.70651 6.93073H12.4878V8.96823C12.4782 8.98428 12.4646 8.99996 12.4561 9.0153H12.4878V8.96823C13.1231 7.99066 14.2561 6.59311 16.7963 6.59311C19.9415 6.59311 22.2995 8.64808 22.2995 13.0636ZM2.70527 -4.89604e-08C1.06991 -4.89604e-08 2.82882e-07 1.07348 2.82882e-07 2.48387C2.82882e-07 3.86431 1.0389 4.9688 2.64252 4.9688H2.67354C4.34098 4.9688 5.37773 3.86431 5.37773 2.48387C5.346 1.07348 4.34097 -4.89604e-08 2.70527 -4.89604e-08ZM0.284146 21.3091H5.06328V6.93073H0.284146V21.3091Z" transform="translate(19.3005 17.0918) scale(2)" fill="#F1F2F2"/>
</svg>
